<svg xmlns="http://www.w3.org/2000/svg" width="246" height="424" viewBox="0 0 246 424">
    <g fill="none" fill-rule="nonzero">
        <path fill="#E7E7E7" d="M0 0h246v424H0z"/>
        <circle cx="123" cy="164" r="80" fill="#B6B6B6"/>
        <path fill="#B6B6B6" d="M16 376h214v32H16z"/>
        <path stroke="#B6B6B6" d="M16 328h214v32H16z"/>
        <g fill="#999">
            <path d="M214.421 16.842h15.158a.421.421 0 0 0 0-.842H214.42a.421.421 0 0 0 0 .842zM229.579 21.053H214.42a.421.421 0 0 0 0 .842h15.158a.421.421 0 0 0 0-.842zM229.579 26.105H214.42a.421.421 0 0 0 0 .842h15.158a.421.421 0 0 0 0-.842z"/>
        </g>
        <path fill="#999" d="M31.947 21.625h-14.63l4.543-4.61a.379.379 0 0 0-.009-.53.366.366 0 0 0-.513 0l-5.174 5.25a.379.379 0 0 0 0 .53l5.174 5.25c.147.144.38.14.522-.01a.379.379 0 0 0 0-.52l-4.543-4.61h14.63c.204 0 .37-.168.37-.375a.372.372 0 0 0-.37-.375z"/>
    </g>
</svg>
