<svg xmlns="http://www.w3.org/2000/svg" width="246" height="424" viewBox="0 0 246 424">
    <g fill="none" fill-rule="evenodd">
        <path fill="#F6F6F6" fill-rule="nonzero" d="M0 0h246v424H0z"/>
        <path fill="#E7E7E7" fill-rule="nonzero" d="M16 65h214v120H16zM16 265h214v48H16zM16 329h214v48H16zM16 201h214v48H16z"/>
        <rect width="56" height="8" x="24" y="209" fill="#BBC5ED" fill-rule="nonzero" rx="4"/>
        <rect width="56" height="8" x="24" y="273" fill="#BBC5ED" fill-rule="nonzero" rx="4"/>
        <rect width="56" height="8" x="24" y="337" fill="#BBC5ED" fill-rule="nonzero" rx="4"/>
        <g fill="#999" fill-rule="nonzero">
            <path d="M214.421 16.842h15.158a.421.421 0 0 0 0-.842H214.42a.421.421 0 0 0 0 .842zM229.579 21.053H214.42a.421.421 0 0 0 0 .842h15.158a.421.421 0 0 0 0-.842zM229.579 26.105H214.42a.421.421 0 0 0 0 .842h15.158a.421.421 0 0 0 0-.842z"/>
        </g>
        <path fill="#999" fill-rule="nonzero" d="M31.947 21.625h-14.63l4.543-4.61a.379.379 0 0 0-.009-.53.366.366 0 0 0-.513 0l-5.174 5.25a.379.379 0 0 0 0 .53l5.174 5.25c.147.144.38.14.522-.01a.379.379 0 0 0 0-.52l-4.543-4.61h14.63c.204 0 .37-.168.37-.375a.372.372 0 0 0-.37-.375zM214.337 232c.09 0 .175-.036.238-.1l6.063-6.158a.346.346 0 0 0 0-.484l-6.063-6.158a.333.333 0 0 0-.476.009.346.346 0 0 0 0 .475l5.825 5.916-5.825 5.916a.346.346 0 0 0 0 .484c.063.064.149.1.238.1zM214.337 360c.09 0 .175-.036.238-.1l6.063-6.158a.346.346 0 0 0 0-.484l-6.063-6.158a.333.333 0 0 0-.476.009.346.346 0 0 0 0 .475l5.825 5.916-5.825 5.916a.346.346 0 0 0 0 .484c.063.064.149.1.238.1zM214.337 296c.09 0 .175-.036.238-.1l6.063-6.158a.346.346 0 0 0 0-.484l-6.063-6.158a.333.333 0 0 0-.476.009.346.346 0 0 0 0 .475l5.825 5.916-5.825 5.916a.346.346 0 0 0 0 .484c.063.064.149.1.238.1z"/>
        <path fill="#4060DB" d="M210 368c-11.046 0-20 8.954-20 20s8.954 20 20 20 20-8.954 20-20-8.954-20-20-20zm6.4 20.8h-5.6v5.6a.8.8 0 0 1-1.6 0v-5.6h-5.6a.8.8 0 0 1 0-1.6h5.6v-5.6a.8.8 0 0 1 1.6 0v5.6h5.6a.8.8 0 0 1 0 1.6z"/>
    </g>
</svg>
