<svg height="280" viewBox="0 0 458 280" width="458" xmlns="http://www.w3.org/2000/svg"><g fill="none"><path d="m0 0h458v280h-458z" fill="#f6f6f6"/><path d="m80 40h88v16h-88z" fill="#4060db"/><path d="m417.778 232 7.778 7.778-7.778 7.778-7.778-7.778zm-256.778-164 7-8h-14z" fill="#d8d8d8"/><path d="m208 40h118v16h-118zm-64 32h158v16h-158z" fill="#4060db"/><path d="m104 104h246v16h-246z" fill="#bbc5ed"/><path d="m361.778 104 7.778 7.778-7.778 7.778-7.778-7.778z" fill="#e7e7e7"/><path d="m236 136h160v16h-160z" fill="#bbc5ed"/><path d="m80 168h180v16h-180z" fill="#e2e5f3"/><path d="m252 196 7-8h-14z" fill="#e7e7e7"/><path d="m170 200h180v16h-180zm76 32h160v16h-160z" fill="#e2e5f3"/><g transform="translate(322 24)"><circle cx="4" cy="4" fill="#b6b6b6" r="4"/><path d="m4 3v229" stroke="#b6b6b6" stroke-linecap="square" stroke-width="2"/></g><path d="m32 40h24v8h-24zm0 64h24v8h-24zm0 64h24v8h-24z" fill="#b6b6b6"/></g></svg>